<svg xmlns="http://www.w3.org/2000/svg" version="1.1" xmlns:xlink="http://www.w3.org/1999/xlink" xmlns:svgjs="http://svgjs.dev/svgjs" width="1440" height="560" preserveAspectRatio="none" viewBox="0 0 1440 560">
    <g mask="url(&quot;#SvgjsMask1002&quot;)" fill="none">
        <rect width="1440" height="560" x="0" y="0" fill="#0e2a47"></rect>
        <path d="M 0,14 C 57.6,57.2 172.8,207.8 288,230 C 403.2,252.2 460.8,127.8 576,125 C 691.2,122.2 748.8,218.6 864,216 C 979.2,213.4 1036.8,119.6 1152,112 C 1267.2,104.4 1382.4,164.8 1440,178L1440 560L0 560z" fill="#184a7e"></path>
        <path d="M 0,379 C 96,409.2 288,531.4 480,530 C 672,528.6 768,374.2 960,372 C 1152,369.8 1344,489.6 1440,519L1440 560L0 560z" fill="#2264ab"></path>
    </g>
    <defs>
        <mask id="SvgjsMask1002">
            <rect width="1440" height="560" fill="#ffffff"></rect>
        </mask>
    </defs>
</svg>